# xmcd
#
# Track frame offsets: 
#        150
#        41264
#        52104
#        75424
#        91053
#        143416
#        165397
#        181397
#        210678
#        223675
#        237697
#
# Disc length: 3848 seconds
#
# Revision: 1
# Processed by: cddbd v1.5.2PL0 Copyright (c) Steve Scherf et al.
# Submitted via: ExactAudioCopy v0.99pb5
#
DISCID=8d0f060b
DTITLE=Various Artist - Jazz Selection 2
DYEAR=2009
DGENRE=Compilation
TTITLE0=Miles Davis - Someday My Prince Will Come
TTITLE1=Carmen McRae and Dave Brubeck - Take Five (Live)
TTITLE2=Weather Report - Punk Jazz
TTITLE3=Billie Holiday - I'm A Fool To Want You
TTITLE4=Clifford Brown - Walkin' (Live Mono)
TTITLE5=Ella Fitzgerald - Lemon Drop (Live)
TTITLE6=Sarah Vaughan - Romance
TTITLE7=Thelonious Monk - Monk's Dream
TTITLE8=Coleman Ornette - Skies of America
TTITLE9=Weather Report - Rockin' In Rhythm
TTITLE10=Gary Peacock - Voice From The Past
EXTD=YEAR: 2009
EXTT0=
EXTT1=
EXTT2=
EXTT3=
EXTT4=
EXTT5=
EXTT6=
EXTT7=
EXTT8=
EXTT9=
EXTT10=
PLAYORDER=
